<svg xmlns="http://www.w3.org/2000/svg" viewBox="0 0 24 24" preserveAspectRatio="xMidYMid meet" focusable="false" class="style-scope yt-icon" style="pointer-events: none; display: block; width: 100%; height: 100%;">
<g class="style-scope yt-icon">
<path d="M19,3.87v9.77C19,17.7,15.86,21,12,21c-3.86,0-7-3.3-7-7.37V13.5c0-1.06,0.22-2.13,0.62-3.09c0.5-1.19,1.29-2.21,2.27-2.97 c0.85-0.66,1.83-1.14,2.87-1.65c0.39-0.19,0.77-0.38,1.15-0.58c0.36-0.19,0.72-0.38,1.08-0.56V6v1.87l1.55-1.04L19,3.87 M20,2l-6,4 V3c-0.85,0.44-1.7,0.88-2.55,1.33c-1.41,0.74-2.9,1.34-4.17,2.32C6.15,7.52,5.26,8.7,4.7,10.02C4.24,11.11,4,12.31,4,13.5 c0,0.03,0,0.12,0,0.14C4,18.26,7.58,22,12,22c4.42,0,8-3.74,8-8.36V2L20,2z M9.45,12.89L14,10v5.7c0,1.82-1.34,3.3-3,3.3 s-3-1.47-3-3.3C8,14.51,8.58,13.47,9.45,12.89z" class="style-scope yt-icon"/>
</g>
</svg>